<svg width="30" height="30" viewBox="0 0 30 30" fill="none" xmlns="http://www.w3.org/2000/svg">
<g clip-path="url(#clip0_112_1640)">
<path d="M30 0H0V30H30V0Z" fill="#0052FF"/>
<path fill-rule="evenodd" clip-rule="evenodd" d="M4.45312 15C4.45312 20.8249 9.17511 25.5469 15 25.5469C20.8249 25.5469 25.5469 20.8249 25.5469 15C25.5469 9.17511 20.8249 4.45312 15 4.45312C9.17511 4.45312 4.45312 9.17511 4.45312 15ZM12.3047 11.6016C11.9164 11.6016 11.6016 11.9164 11.6016 12.3047V17.6953C11.6016 18.0836 11.9164 18.3984 12.3047 18.3984H17.6953C18.0836 18.3984 18.3984 18.0836 18.3984 17.6953V12.3047C18.3984 11.9164 18.0836 11.6016 17.6953 11.6016H12.3047Z" fill="#E9E9E9"/>
</g>
<defs>
<clipPath id="clip0_112_1640">
<rect width="30" height="30" rx="5" fill="white"/>
</clipPath>
</defs>
</svg>
