<svg width="37" height="37" viewBox="0 0 37 37" fill="none" xmlns="http://www.w3.org/2000/svg">
<rect y="0.0307617" width="30" height="30" rx="2" fill="#DE48A0"/>
<path d="M7 8.03076C7 6.92619 7.89543 6.03076 9 6.03076H35C36.1046 6.03076 37 6.92619 37 8.03076V34.0308C37 35.1353 36.1046 36.0308 35 36.0308H9C7.89543 36.0308 7 35.1353 7 34.0308V8.03076Z" fill="#3B82F6" fill-opacity="0.5"/>
<path d="M7.5 8.03076C7.5 7.20233 8.17157 6.53076 9 6.53076H35C35.8284 6.53076 36.5 7.20233 36.5 8.03076V34.0308C36.5 34.8592 35.8284 35.5308 35 35.5308H9C8.17157 35.5308 7.5 34.8592 7.5 34.0308V8.03076Z" stroke="white" stroke-opacity="0.01"/>
</svg>
