<svg width="11" height="10" viewBox="0 0 11 10" fill="none" xmlns="http://www.w3.org/2000/svg">
<g clip-path="url(#clip0_112_4333)">
<path d="M9.67839 5.00008C9.67839 7.53137 7.62634 9.58342 5.09505 9.58342C2.56375 9.58342 0.511719 7.53137 0.511719 5.00008C0.511719 2.46878 2.56375 0.416748 5.09505 0.416748C7.62634 0.416748 9.67839 2.46878 9.67839 5.00008ZM1.3479 5.00008C1.3479 7.06958 3.02556 8.74725 5.09505 8.74725C7.16455 8.74725 8.84222 7.06958 8.84222 5.00008C8.84222 2.93059 7.16455 1.25293 5.09505 1.25293C3.02556 1.25293 1.3479 2.93059 1.3479 5.00008Z" fill="#3B82F6"/>
<path d="M5.09245 2.08325C4.86232 2.08325 4.67578 2.2698 4.67578 2.49992V5.19438C4.67578 5.19438 4.67578 5.303 4.72857 5.38471C4.76391 5.454 4.81899 5.51421 4.89136 5.556L6.81628 6.66738C7.01557 6.78242 7.27041 6.71413 7.38545 6.51484C7.50049 6.31554 7.43224 6.06071 7.23295 5.94567L5.50911 4.95042V2.49992C5.50911 2.2698 5.32257 2.08325 5.09245 2.08325Z" fill="#3B82F6"/>
</g>
<defs>
<clipPath id="clip0_112_4333">
<rect width="10" height="10" fill="white" transform="translate(0.09375)"/>
</clipPath>
</defs>
</svg>
