<svg width="11" height="10" viewBox="0 0 11 10" fill="none" xmlns="http://www.w3.org/2000/svg">
<mask id="path-1-inside-1_112_4318" fill="white">
<path fill-rule="evenodd" clip-rule="evenodd" d="M7.13531 2.99999C7.13531 1.89699 6.21967 0.999993 5.09375 0.999993C3.96783 0.999993 3.05219 1.89699 3.05219 2.99999C3.05219 4.103 3.96783 5 5.09375 5C6.21967 5 7.13531 4.103 7.13531 2.99999ZM9.06663 10H8.15609C7.87436 10 7.6457 9.776 7.6457 9.5C7.6457 9.224 7.87436 9 8.15609 9H8.37504C8.72823 9 8.98905 8.65149 8.85533 8.33099C8.23724 6.84899 6.78569 6 5.09375 6C3.40181 6 1.95026 6.84899 1.33217 8.33099C1.19845 8.65149 1.45927 9 1.81246 9H2.03141C2.31314 9 2.5418 9.224 2.5418 9.5C2.5418 9.776 2.31314 10 2.03141 10H1.12087C0.482883 10 -0.0193409 9.42849 0.115912 8.81799C0.487476 7.13849 1.6476 5.89898 3.17571 5.33648C2.47851 4.78698 2.03141 3.945 2.03141 2.99999C2.03141 1.22449 3.60546 -0.190512 5.46072 0.0209884C6.80509 0.173989 7.91875 1.22347 8.12036 2.53497C8.29389 3.66547 7.82178 4.69798 7.01179 5.33648C8.5399 5.89898 9.70002 7.13849 10.0716 8.81799C10.2068 9.42849 9.70462 10 9.06663 10ZM6.62492 9.5C6.62492 9.776 6.39627 10 6.11453 10H4.07297C3.79123 10 3.56258 9.776 3.56258 9.5C3.56258 9.224 3.79123 9 4.07297 9H6.11453C6.39627 9 6.62492 9.224 6.62492 9.5Z"/>
</mask>
<path fill-rule="evenodd" clip-rule="evenodd" d="M7.13531 2.99999C7.13531 1.89699 6.21967 0.999993 5.09375 0.999993C3.96783 0.999993 3.05219 1.89699 3.05219 2.99999C3.05219 4.103 3.96783 5 5.09375 5C6.21967 5 7.13531 4.103 7.13531 2.99999ZM9.06663 10H8.15609C7.87436 10 7.6457 9.776 7.6457 9.5C7.6457 9.224 7.87436 9 8.15609 9H8.37504C8.72823 9 8.98905 8.65149 8.85533 8.33099C8.23724 6.84899 6.78569 6 5.09375 6C3.40181 6 1.95026 6.84899 1.33217 8.33099C1.19845 8.65149 1.45927 9 1.81246 9H2.03141C2.31314 9 2.5418 9.224 2.5418 9.5C2.5418 9.776 2.31314 10 2.03141 10H1.12087C0.482883 10 -0.0193409 9.42849 0.115912 8.81799C0.487476 7.13849 1.6476 5.89898 3.17571 5.33648C2.47851 4.78698 2.03141 3.945 2.03141 2.99999C2.03141 1.22449 3.60546 -0.190512 5.46072 0.0209884C6.80509 0.173989 7.91875 1.22347 8.12036 2.53497C8.29389 3.66547 7.82178 4.69798 7.01179 5.33648C8.5399 5.89898 9.70002 7.13849 10.0716 8.81799C10.2068 9.42849 9.70462 10 9.06663 10ZM6.62492 9.5C6.62492 9.776 6.39627 10 6.11453 10H4.07297C3.79123 10 3.56258 9.776 3.56258 9.5C3.56258 9.224 3.79123 9 4.07297 9H6.11453C6.39627 9 6.62492 9.224 6.62492 9.5Z" fill="white" fill-opacity="0.8"/>
<path d="M8.85533 8.33099L7.00943 9.10084L7.00954 9.10111L8.85533 8.33099ZM1.33217 8.33099L3.17796 9.10111L3.17807 9.10084L1.33217 8.33099ZM0.115912 8.81799L2.06857 9.25059L2.06869 9.25001L0.115912 8.81799ZM3.17571 5.33648L3.86659 7.21336L7.22126 5.9785L4.41373 3.76572L3.17571 5.33648ZM5.46072 0.0209884L5.23419 2.00812L5.23457 2.00816L5.46072 0.0209884ZM8.12036 2.53497L10.0972 2.23152L10.0971 2.2311L8.12036 2.53497ZM7.01179 5.33648L5.77366 3.76581L2.96654 5.97861L6.32091 7.21336L7.01179 5.33648ZM10.0716 8.81799L8.11881 9.25001L8.11893 9.25059L10.0716 8.81799ZM9.13531 2.99999C9.13531 0.753843 7.28526 -1.00001 5.09375 -1.00001V2.99999C5.10778 2.99999 5.11592 3.00246 5.12116 3.00464C5.12765 3.00733 5.13321 3.01119 5.13716 3.01505C5.14108 3.0189 5.14069 3.02004 5.13892 3.01595C5.13799 3.01379 5.13696 3.01078 5.13621 3.00722C5.13544 3.00353 5.13531 3.00086 5.13531 2.99999H9.13531ZM5.09375 -1.00001C2.90224 -1.00001 1.05219 0.753843 1.05219 2.99999H5.05219C5.05219 3.00086 5.05206 3.00353 5.05129 3.00722C5.05054 3.01078 5.04951 3.01379 5.04858 3.01595C5.04681 3.02004 5.04642 3.0189 5.05035 3.01505C5.05429 3.01119 5.05985 3.00733 5.06634 3.00464C5.07158 3.00246 5.07972 2.99999 5.09375 2.99999V-1.00001ZM1.05219 2.99999C1.05219 5.24615 2.90224 7 5.09375 7V3C5.07972 3 5.07158 2.99752 5.06634 2.99535C5.05985 2.99266 5.05429 2.9888 5.05034 2.98494C5.04642 2.98109 5.04681 2.97995 5.04858 2.98404C5.04951 2.9862 5.05054 2.98921 5.05129 2.99277C5.05206 2.99646 5.05219 2.99913 5.05219 2.99999H1.05219ZM5.09375 7C7.28526 7 9.13531 5.24615 9.13531 2.99999H5.13531C5.13531 2.99913 5.13544 2.99646 5.13621 2.99277C5.13696 2.98921 5.13799 2.9862 5.13892 2.98404C5.14069 2.97995 5.14108 2.98109 5.13716 2.98494C5.13321 2.9888 5.12765 2.99266 5.12116 2.99535C5.11592 2.99752 5.10778 3 5.09375 3V7ZM9.06663 8H8.15609V12H9.06663V8ZM8.15609 8C8.93995 8 9.6457 8.63285 9.6457 9.5H5.6457C5.6457 10.9191 6.80877 12 8.15609 12V8ZM9.6457 9.5C9.6457 10.3671 8.93995 11 8.15609 11V7C6.80877 7 5.6457 8.08085 5.6457 9.5H9.6457ZM8.15609 11H8.37504V7H8.15609V11ZM8.37504 11C9.95235 11 11.4607 9.38148 10.7011 7.56088L7.00954 9.10111C6.51738 7.92151 7.50411 7 8.37504 7V11ZM10.7012 7.56115C9.72449 5.21917 7.46052 4 5.09375 4V8C6.11087 8 6.75 8.4788 7.00943 9.10084L10.7012 7.56115ZM5.09375 4C2.72698 4 0.463014 5.21917 -0.513724 7.56115L3.17807 9.10084C3.4375 8.4788 4.07663 8 5.09375 8V4ZM-0.513611 7.56088C-1.27322 9.38148 0.235146 11 1.81246 11V7C2.68339 7 3.67012 7.92151 3.17796 9.10111L-0.513611 7.56088ZM1.81246 11H2.03141V7H1.81246V11ZM2.03141 11C1.24755 11 0.541797 10.3671 0.541797 9.5H4.5418C4.5418 8.08085 3.37873 7 2.03141 7V11ZM0.541797 9.5C0.541797 8.63285 1.24755 8 2.03141 8V12C3.37873 12 4.5418 10.9191 4.5418 9.5H0.541797ZM2.03141 8H1.12087V12H2.03141V8ZM1.12087 8C1.61677 8 2.2405 8.47453 2.06857 9.25059L-1.83674 8.38539C-2.27918 10.3825 -0.651006 12 1.12087 12V8ZM2.06869 9.25001C2.28565 8.26937 2.94456 7.55276 3.86659 7.21336L2.48482 3.4596C0.350639 4.2452 -1.31069 6.0076 -1.83687 8.38597L2.06869 9.25001ZM4.41373 3.76572C4.16815 3.57216 4.03141 3.29566 4.03141 2.99999H0.0314067C0.0314067 4.59434 0.788881 6.0018 1.93769 6.90725L4.41373 3.76572ZM4.03141 2.99999C4.03141 2.45071 4.53361 1.92825 5.23419 2.00812L5.68726 -1.96614C2.67731 -2.30927 0.0314067 -0.0017266 0.0314067 2.99999H4.03141ZM5.23457 2.00816C5.71267 2.06257 6.08361 2.44871 6.14358 2.83884L10.0971 2.2311C9.7539 -0.00178094 7.89751 -1.7146 5.68688 -1.96618L5.23457 2.00816ZM6.14351 2.83841C6.20053 3.20986 6.05607 3.54318 5.77366 3.76581L8.24993 6.90716C9.58749 5.85278 10.3873 4.12108 10.0972 2.23152L6.14351 2.83841ZM6.32091 7.21336C7.24294 7.55276 7.90185 8.26937 8.11881 9.25001L12.0244 8.38597C11.4982 6.0076 9.83686 4.2452 7.70268 3.4596L6.32091 7.21336ZM8.11893 9.25059C7.947 8.47453 8.57073 8 9.06663 8V12C10.8385 12 12.4667 10.3825 12.0242 8.38539L8.11893 9.25059ZM4.62492 9.5C4.62492 8.63285 5.33068 8 6.11453 8V12C7.46186 12 8.62492 10.9191 8.62492 9.5H4.62492ZM6.11453 8H4.07297V12H6.11453V8ZM4.07297 8C4.85682 8 5.56258 8.63285 5.56258 9.5H1.56258C1.56258 10.9191 2.72564 12 4.07297 12V8ZM5.56258 9.5C5.56258 10.3671 4.85682 11 4.07297 11V7C2.72564 7 1.56258 8.08085 1.56258 9.5H5.56258ZM4.07297 11H6.11453V7H4.07297V11ZM6.11453 11C5.33068 11 4.62492 10.3671 4.62492 9.5H8.62492C8.62492 8.08085 7.46186 7 6.11453 7V11Z" fill="#3B82F6" mask="url(#path-1-inside-1_112_4318)"/>
</svg>
